#!OML:ASF F:\VICON\USERDATA\INSTALL\rory3\rory3.ASF
:FULLY-SPECIFIED
:DEGREES
107
root 1.21164 18.0819 -8.31752 -2.61978 -1.23044 1.59603
lowerback 10.5389 0.59809 -1.53574
upperback 0.383549 0.640808 0.536704
thorax -5.53759 0.361781 1.33004
lowerneck -16.8036 -2.94733 -1.62712
upperneck 20.9252 -3.72888 0.263052
head 9.41197 -1.83833 -0.121945
rclavicle 8.95773e-015 6.36111e-015
rhumerus -30.2931 -21.5402 -78.2048
rradius 22.5081
rwrist 7.96295
rhand -16.7496 19.9045
rfingers 7.12502
rthumb 9.47695 -9.86236
lclavicle 8.95773e-015 6.36111e-015
lhumerus -29.6677 0.881424 82.2241
lradius 25.3216
lwrist 5.19382
lhand -25.5448 26.6313
lfingers 7.12502
lthumb 0.985354 56.6088
rfemur -23.9719 1.36551 20.7532
rtibia 66.7123
rfoot -9.84541 -11.3949
rtoes 2.51181
lfemur -6.90827 -1.54433 -25.938
ltibia 25.2901
lfoot -13.1573 0.161923
ltoes -0.865624
108
root 1.207 18.0553 -8.16354 -2.53434 -1.13516 1.82326
lowerback 10.7217 0.565744 -1.83024
upperback 0.309986 0.556505 0.501322
thorax -5.7174 0.329701 1.47088
lowerneck -16.7223 -2.95391 -1.56606
upperneck 20.8924 -3.75418 0.255639
head 9.38425 -1.84664 -0.136231
rclavicle 1.7257e-014 -1.98785e-015
rhumerus -30.4817 -21.6129 -78.1544
rradius 22.7538
rwrist 7.83416
rhand -16.451 19.8659
rfingers 7.12502
rthumb 9.76502 -9.88769
lclavicle 1.7257e-014 -1.98785e-015
lhumerus -29.129 0.433979 82.2515
lradius 25.4387
lwrist 5.445
lhand -24.3532 30.3846
lfingers 7.12502
lthumb 2.13621 60.3536
rfemur -25.0729 1.13825 20.5145
rtibia 65.6053
rfoot -9.71772 -11.6073
rtoes 0.192151
lfemur -7.03665 -1.82905 -26.1993
ltibia 25.7891
lfoot -13.5558 0.214093
ltoes -0.299237
109
root 1.19968 18.0517 -8.00584 -2.43431 -0.871054 1.85854
lowerback 10.6924 0.423997 -1.98771
upperback 0.323801 0.354255 0.583832
thorax -5.67995 0.235158 1.67772
lowerneck -16.6512 -2.90384 -1.68563
upperneck 20.7947 -3.66754 0.320154
head 9.34017 -1.80918 -0.0810922
rclavicle -1.34428e-014 -3.97569e-016
rhumerus -30.4359 -21.3745 -78.2079
rradius 22.8672
rwrist 7.66896
rhand -16.4479 19.8081
rfingers 7.12502
rthumb 9.768 -9.94538
lclavicle -1.34428e-014 -3.97569e-016
lhumerus -28.3981 0.274057 82.2753
lradius 25.374
lwrist 5.61138
lhand -25.4694 28.7942
lfingers 7.12502
lthumb 1.05817 58.7713
rfemur -26.0396 0.804239 20.5192
rtibia 64.2683
rfoot -9.25777 -12.0922
rtoes -4.22714
lfemur -6.45699 -1.48155 -26.2546
ltibia 26.2707
lfoot -14.6226 0.16836
ltoes -1.57036
110
root 1.19862 18.0277 -7.84576 -2.377 -0.807787 1.97031
lowerback 10.7249 0.323427 -2.10199
upperback 0.258307 0.206646 0.604689
thorax -5.76126 0.16749 1.78703
lowerneck -16.3644 -2.84208 -1.81948
upperneck 20.757 -3.57749 0.43075
head 9.27835 -1.76704 -0.00476057
rclavicle 8.15017e-015 -1.98785e-015
rhumerus -30.6151 -20.9112 -78.3158
rradius 23.0681
rwrist 7.47342
rhand -16.6476 19.9825
rfingers 7.12502
rthumb 9.5754 -9.77991
lclavicle 8.15017e-015 -1.98785e-015
lhumerus -28.0077 0.101421 82.2328
lradius 25.5154
lwrist 5.70704
lhand -27.6893 22.5595
lfingers 7.12502
lthumb -1.0858 52.5365
rfemur -26.9761 0.626698 20.3987
rtibia 62.8403
rfoot -9.34371 -12.6218
rtoes -0.0149311
lfemur -6.03798 -1.22489 -26.4045
ltibia 26.663
lfoot -15.0908 0.384761
ltoes -0.838948
111
root 1.1954 17.9971 -7.68732 -2.35104 -1.02656 2.09358
lowerback 10.8757 0.319921 -2.36746
upperback 0.166443 0.168994 0.673409
thorax -5.94259 0.160595 2.01546
lowerneck -15.8675 -2.79774 -1.98015
upperneck 20.5619 -3.50896 0.544926
head 9.12401 -1.73811 0.0784162
rclavicle -9.01985e-015 -8.34896e-015
rhumerus -30.805 -20.477 -78.3179
rradius 23.1887
rwrist 7.35088
rhand -16.584 20.6425
rfingers 7.12502
rthumb 9.63677 -9.1171
lclavicle -9.01985e-015 -8.34896e-015
lhumerus -27.8624 0.0403415 82.1758
lradius 25.8896
lwrist 5.5818
lhand -28.629 20.0377
lfingers 7.12502
lthumb -1.99342 50.0081
rfemur -27.8006 0.708979 20.3035
rtibia 61.191
rfoot -8.36053 -12.7961
rtoes 9.05091
lfemur -5.55184 -0.93869 -26.5753
ltibia 26.9236
lfoot -15.4709 0.788773
ltoes 1.01341
112
root 1.19049 17.9971 -7.52517 -2.31352 -1.16533 2.2876
lowerback 10.8817 0.400485 -2.58239
upperback 0.290507 0.245178 0.593542
thorax -5.81981 0.199883 2.04075
lowerneck -16.1551 -2.91755 -1.93893
upperneck 20.5865 -3.70638 0.655854
head 9.18937 -1.81309 0.0800911
rclavicle 4.82053e-015 3.18055e-015
rhumerus -30.5885 -20.9016 -78.3176
rradius 23.1285
rwrist 7.4318
rhand -16.1367 21.4802
rfingers 7.12502
rthumb 10.0683 -8.25894
lclavicle 4.82053e-015 3.18055e-015
lhumerus -27.2319 -0.659736 82.2152
lradius 26.1207
lwrist 6.12653
lhand -27.8789 22.1819
lfingers 7.12502
lthumb -1.26894 52.1578
rfemur -28.4213 0.825375 20.1119
rtibia 59.3091
rfoot -6.47546 -12.7873
rtoes 18.1321
lfemur -4.89524 -0.86745 -26.8208
ltibia 26.8055
lfoot -16.2356 1.03916
ltoes 0.482364
113
root 1.18364 18.0146 -7.36264 -2.22211 -1.20779 2.27555
lowerback 10.769 0.414632 -2.62102
upperback 0.489979 0.264395 0.598743
thorax -5.54751 0.204349 2.0648
lowerneck -16.8169 -2.94719 -1.79302
upperneck 20.7443 -3.76755 0.623366
head 9.36297 -1.8293 0.0256189
rclavicle -1.49089e-016 7.95139e-016
rhumerus -30.2419 -20.8907 -78.5646
rradius 23.3362
rwrist 7.04722
rhand -15.5724 21.8732
rfingers 7.12502
rthumb 10.6126 -7.83878
lclavicle -1.49089e-016 7.95139e-016
lhumerus -26.2927 -1.28466 82.2931
lradius 26.1871
lwrist 6.75142
lhand -27.128 24.015
lfingers 7.12502
lthumb -0.543707 53.9941
rfemur -28.9674 0.929564 20.1302
rtibia 57.2122
rfoot -11.9238 -12.7613
rtoes 0.651799
lfemur -4.20162 -0.985855 -26.8266
ltibia 26.3701
lfoot -16.6054 1.18473
ltoes -0.0597
114
root 1.17411 18.0002 -7.20214 -2.17459 -1.17361 2.2028
lowerback 10.6819 0.334751 -2.62494
upperback 0.638318 0.164717 0.65587
thorax -5.33719 0.15138 2.14185
lowerneck -16.8806 -2.88292 -1.78324
upperneck 20.5187 -3.69462 0.702452
head 9.29654 -1.78598 0.0615113
rclavicle -3.55328e-015 -1.19271e-015
rhumerus -29.9835 -20.818 -78.7189
rradius 23.3592
rwrist 7.0452
rhand -15.4688 21.8276
rfingers 7.12502
rthumb 10.7126 -7.87929
lclavicle -3.55328e-015 -1.19271e-015
lhumerus -25.3996 -1.34981 82.1797
lradius 26.2563
lwrist 6.24159
lhand -27.0907 24.4192
lfingers 7.12502
lthumb -0.507692 54.3984
rfemur -29.4955 0.980719 20.2306
rtibia 55.0431
rfoot -12.1683 -13.2528
rtoes 4.01886
lfemur -3.39058 -0.987024 -26.7313
ltibia 25.6984
lfoot -16.4971 1.22437
ltoes 1.12566
115
root 1.16868 17.9896 -7.03969 -2.05273 -1.07385 2.50386
lowerback 10.5164 0.215954 -3.00788
upperback 0.6858 -0.0339335 0.649573
thorax -5.18338 0.0594533 2.38063
lowerneck -16.6793 -2.80671 -1.75188
upperneck 20.3594 -3.56994 0.579653
head 9.19952 -1.74092 0.0345884
rclavicle -3.926e-015 -1.98785e-015
rhumerus -29.7662 -20.6704 -78.7709
rradius 23.2334
rwrist 7.16716
rhand -15.8529 21.3249
rfingers 7.12502
rthumb 10.3421 -8.40075
lclavicle -3.926e-015 -1.98785e-015
lhumerus -24.7904 -1.1655 82.0244
lradius 26.449
lwrist 5.70429
lhand -27.6768 24.5898
lfingers 7.12502
lthumb -1.07379 54.5668
rfemur -30.0447 0.960087 19.8435
rtibia 52.8098
rfoot -10.5868 -13.3512
rtoes -0.111051
lfemur -2.52858 -1.03358 -27.0651
ltibia 24.8967
lfoot -16.4513 1.29703
ltoes 1.43824
116
root 1.16382 17.9842 -6.87889 -1.93548 -1.1438 2.51864
lowerback 10.5989 0.15691 -3.08169
upperback 0.591363 -0.12103 0.720171
thorax -5.3231 0.0227278 2.51025
lowerneck -16.5326 -2.7488 -1.82207
upperneck 20.445 -3.46099 0.519403
head 9.20128 -1.70299 0.0409404
rclavicle -5.56597e-015 -7.15625e-015
rhumerus -29.8553 -20.3811 -78.7658
rradius 23.3715
rwrist 7.21526
rhand -16.1647 20.9614
rfingers 7.12502
rthumb 10.0412 -8.77902
lclavicle -5.56597e-015 -7.15625e-015
lhumerus -24.6022 -1.19256 81.9826
lradius 26.8349
lwrist 5.91749
lhand -27.6309 25.0441
lfingers 7.12502
lthumb -1.02943 55.0214
rfemur -30.5405 1.18572 19.7608
rtibia 50.5195
rfoot -11.9959 -13.5705
rtoes 6.28526
lfemur -1.74493 -1.23911 -27.1246
ltibia 24.1589
lfoot -16.5032 1.48495
ltoes 1.41426
117
root 1.15544 17.985 -6.72046 -1.87614 -1.15345 2.63958
lowerback 10.8026 0.144076 -3.16449
upperback 0.568557 -0.160232 0.628093
thorax -5.45874 0.00705862 2.46781
lowerneck -16.7069 -2.77851 -1.72108
upperneck 20.6224 -3.54558 0.590833
head 9.29527 -1.72516 0.0339873
rclavicle 6.80837e-015 -1.11319e-014
rhumerus -29.914 -20.0015 -79.1153
rradius 23.777
rwrist 6.71784
rhand -16.2124 20.4531
rfingers 7.12502
rthumb 9.99524 -9.28959
lclavicle 6.80837e-015 -1.11319e-014
lhumerus -24.2074 -1.47029 81.8162
lradius 27.081
lwrist 5.98004
lhand -26.73 26.8224
lfingers 7.12502
lthumb -0.159344 56.8021
rfemur -30.9499 1.50684 19.5256
rtibia 48.1547
rfoot -9.3547 -13.6186
rtoes -1.0748
lfemur -0.920672 -1.40649 -27.3034
ltibia 23.3363
lfoot -16.4655 1.65643
ltoes 2.32453
118
root 1.15004 17.9811 -6.55971 -1.7209 -1.13959 2.94048
lowerback 10.806 0.1551 -3.38602
upperback 0.577866 -0.181125 0.480207
thorax -5.44947 0.000160584 2.44087
lowerneck -16.8802 -2.86902 -1.72963
upperneck 20.7198 -3.70826 0.762204
head 9.36684 -1.78088 0.0698242
rclavicle 1.56543e-015 5.96354e-015
rhumerus -29.8329 -20.0242 -79.3032
rradius 23.9151
rwrist 6.43731
rhand -16.1487 20.2735
rfingers 7.12502
rthumb 10.0567 -9.46622
lclavicle 1.56543e-015 5.96354e-015
lhumerus -23.5831 -2.20393 81.7414
lradius 27.1964
lwrist 6.05925
lhand -26.7316 28.6066
lfingers 7.12502
lthumb -0.160878 58.5863
rfemur -31.3691 1.79589 19.0487
rtibia 45.6143
rfoot -8.22704 -13.6983
rtoes -0.983296
lfemur -0.19767 -1.18652 -27.6339
ltibia 22.6701
lfoot -16.5408 1.5714
ltoes 3.21928
119
root 1.14257 17.9672 -6.39557 -1.51668 -1.21448 2.99774
lowerback 10.6123 0.144233 -3.52072
upperback 0.620903 -0.201375 0.526568
thorax -5.29377 -0.00957373 2.56716
lowerneck -16.8623 -2.88471 -1.89288
upperneck 20.5931 -3.71709 0.902724
head 9.32597 -1.78254 0.145072
rclavicle -1.98785e-015 -7.15625e-015
rhumerus -29.5844 -20.2842 -79.2227
rradius 23.8036
rwrist 6.61908
rhand -16.0869 20.1035
rfingers 7.12502
rthumb 10.1163 -9.63336
lclavicle -1.98785e-015 -7.15625e-015
lhumerus -23.0395 -2.5454 81.7462
lradius 27.4417
lwrist 6.18075
lhand -27.1668 29.3158
lfingers 7.12502
lthumb -0.581182 59.2948
rfemur -31.6302 2.28396 18.8191
rtibia 42.9315
rfoot -8.12939 -14.1075
rtoes 0.748181
lfemur 0.290855 -1.00029 -27.6673
ltibia 22.0585
lfoot -16.5326 1.4058
ltoes 2.32369
120
root 1.12887 17.9798 -6.23296 -1.47848 -1.20191 2.88376
lowerback 10.6518 0.0710635 -3.51735
upperback 0.676297 -0.293693 0.619397
thorax -5.25063 -0.0557057 2.67651
lowerneck -16.8754 -2.89678 -1.98063
upperneck 20.4883 -3.72101 0.957686
head 9.29498 -1.7854 0.178425
rclavicle 1.49089e-015 -6.75868e-015
rhumerus -29.4 -20.1948 -79.3251
rradius 23.9135
rwrist 6.69492
rhand -16.1398 19.4544
rfingers 7.12502
rthumb 10.0653 -10.2848
lclavicle 1.49089e-015 -6.75868e-015
lhumerus -22.652 -2.62966 81.7103
lradius 27.7777
lwrist 6.5061
lhand -26.975 30.0338
lfingers 7.12502
lthumb -0.395907 60.0132
rfemur -31.4758 2.93969 18.6923
rtibia 40.083
rfoot -8.51059 -14.6744
rtoes 2.78838
lfemur 1.68888 -0.807453 -27.504
ltibia 21.4543
lfoot -17.0983 1.54402
ltoes -0.170897
